<svg aria-roledescription="flowchart-v2" role="graphics-document document" viewBox="-8 -8 2740.64453125 1537" style="max-width: 2740.64px; background-color: rgb(247, 250, 252);" xmlns:xlink="http://www.w3.org/1999/xlink" xmlns="http://www.w3.org/2000/svg" width="100%" id="my-svg"><style>#my-svg{font-family:"trebuchet ms",verdana,arial,sans-serif;font-size:16px;fill:#000000;}#my-svg .error-icon{fill:#552222;}#my-svg .error-text{fill:#552222;stroke:#552222;}#my-svg .edge-thickness-normal{stroke-width:2px;}#my-svg .edge-thickness-thick{stroke-width:3.5px;}#my-svg .edge-pattern-solid{stroke-dasharray:0;}#my-svg .edge-pattern-dashed{stroke-dasharray:3;}#my-svg .edge-pattern-dotted{stroke-dasharray:2;}#my-svg .marker{fill:#666;stroke:#666;}#my-svg .marker.cross{stroke:#666;}#my-svg svg{font-family:"trebuchet ms",verdana,arial,sans-serif;font-size:16px;}#my-svg .label{font-family:"trebuchet ms",verdana,arial,sans-serif;color:#000000;}#my-svg .cluster-label text{fill:#333;}#my-svg .cluster-label span,#my-svg p{color:#333;}#my-svg .label text,#my-svg span,#my-svg p{fill:#000000;color:#000000;}#my-svg .node rect,#my-svg .node circle,#my-svg .node ellipse,#my-svg .node polygon,#my-svg .node path{fill:#eee;stroke:#999;stroke-width:1px;}#my-svg .flowchart-label text{text-anchor:middle;}#my-svg .node .katex path{fill:#000;stroke:#000;stroke-width:1px;}#my-svg .node .label{text-align:center;}#my-svg .node.clickable{cursor:pointer;}#my-svg .arrowheadPath{fill:#333333;}#my-svg .edgePath .path{stroke:#666;stroke-width:2.0px;}#my-svg .flowchart-link{stroke:#666;fill:none;}#my-svg .edgeLabel{background-color:white;text-align:center;}#my-svg .edgeLabel rect{opacity:0.5;background-color:white;fill:white;}#my-svg .labelBkg{background-color:rgba(255, 255, 255, 0.5);}#my-svg .cluster rect{fill:hsl(0, 0%, 98.9215686275%);stroke:#707070;stroke-width:1px;}#my-svg .cluster text{fill:#333;}#my-svg .cluster span,#my-svg p{color:#333;}#my-svg div.mermaidTooltip{position:absolute;text-align:center;max-width:200px;padding:2px;font-family:"trebuchet ms",verdana,arial,sans-serif;font-size:12px;background:hsl(-160, 0%, 93.3333333333%);border:1px solid #707070;border-radius:2px;pointer-events:none;z-index:100;}#my-svg .flowchartTitleText{text-anchor:middle;font-size:18px;fill:#000000;}#my-svg :root{--mermaid-font-family:"trebuchet ms",verdana,arial,sans-serif;}#my-svg .active&gt;*{fill:#e8f4ef!important;stroke:#26705a!important;color:#13251f!important;stroke-width:2px!important;}#my-svg .active span{fill:#e8f4ef!important;stroke:#26705a!important;color:#13251f!important;stroke-width:2px!important;}#my-svg .active tspan{fill:#13251f!important;}#my-svg .partial&gt;*{fill:#eef3fb!important;stroke:#416c9e!important;color:#172334!important;stroke-width:2px!important;}#my-svg .partial span{fill:#eef3fb!important;stroke:#416c9e!important;color:#172334!important;stroke-width:2px!important;}#my-svg .partial tspan{fill:#172334!important;}#my-svg .alpha&gt;*{fill:#fff4dc!important;stroke:#a46a12!important;color:#302313!important;stroke-width:2px!important;}#my-svg .alpha span{fill:#fff4dc!important;stroke:#a46a12!important;color:#302313!important;stroke-width:2px!important;}#my-svg .alpha tspan{fill:#302313!important;}#my-svg .governed&gt;*{fill:#f3eef8!important;stroke:#765694!important;color:#251b30!important;stroke-width:2px!important;}#my-svg .governed span{fill:#f3eef8!important;stroke:#765694!important;color:#251b30!important;stroke-width:2px!important;}#my-svg .governed tspan{fill:#251b30!important;}#my-svg .output&gt;*{fill:#f7f7f4!important;stroke:#606a73!important;color:#1e2429!important;stroke-width:2px!important;}#my-svg .output span{fill:#f7f7f4!important;stroke:#606a73!important;color:#1e2429!important;stroke-width:2px!important;}#my-svg .output tspan{fill:#1e2429!important;}</style><g><marker orient="auto" markerHeight="12" markerWidth="12" markerUnits="userSpaceOnUse" refY="5" refX="6" viewBox="0 0 10 10" class="marker flowchart" id="my-svg_flowchart-pointEnd"><path style="stroke-width: 1; stroke-dasharray: 1, 0;" class="arrowMarkerPath" d="M 0 0 L 10 5 L 0 10 z"/></marker><marker orient="auto" markerHeight="12" markerWidth="12" markerUnits="userSpaceOnUse" refY="5" refX="4.5" viewBox="0 0 10 10" class="marker flowchart" id="my-svg_flowchart-pointStart"><path style="stroke-width: 1; stroke-dasharray: 1, 0;" class="arrowMarkerPath" d="M 0 5 L 10 10 L 10 0 z"/></marker><marker orient="auto" markerHeight="11" markerWidth="11" markerUnits="userSpaceOnUse" refY="5" refX="11" viewBox="0 0 10 10" class="marker flowchart" id="my-svg_flowchart-circleEnd"><circle style="stroke-width: 1; stroke-dasharray: 1, 0;" class="arrowMarkerPath" r="5" cy="5" cx="5"/></marker><marker orient="auto" markerHeight="11" markerWidth="11" markerUnits="userSpaceOnUse" refY="5" refX="-1" viewBox="0 0 10 10" class="marker flowchart" id="my-svg_flowchart-circleStart"><circle style="stroke-width: 1; stroke-dasharray: 1, 0;" class="arrowMarkerPath" r="5" cy="5" cx="5"/></marker><marker orient="auto" markerHeight="11" markerWidth="11" markerUnits="userSpaceOnUse" refY="5.2" refX="12" viewBox="0 0 11 11" class="marker cross flowchart" id="my-svg_flowchart-crossEnd"><path style="stroke-width: 2; stroke-dasharray: 1, 0;" class="arrowMarkerPath" d="M 1,1 l 9,9 M 10,1 l -9,9"/></marker><marker orient="auto" markerHeight="11" markerWidth="11" markerUnits="userSpaceOnUse" refY="5.2" refX="-1" viewBox="0 0 11 11" class="marker cross flowchart" id="my-svg_flowchart-crossStart"><path style="stroke-width: 2; stroke-dasharray: 1, 0;" class="arrowMarkerPath" d="M 1,1 l 9,9 M 10,1 l -9,9"/></marker><g class="root"><g class="clusters"><g id="campusLane" class="cluster default flowchart-label"><rect height="301" width="1901.5546875" y="0" x="107.69921875" ry="0" rx="0" style=""/><g transform="translate(896.4140625, 0)" class="cluster-label"><foreignObject height="19" width="324.125"><div style="display: inline-block; white-space: nowrap;" xmlns="http://www.w3.org/1999/xhtml"><span class="nodeLabel">Laboratory Campus / LabTalk consumer layer</span></div></foreignObject></g></g><g id="evidenceLane" class="cluster default flowchart-label"><rect height="806" width="1098.1171875" y="715" x="0" ry="0" rx="0" style=""/><g transform="translate(429.40234375, 715)" class="cluster-label"><foreignObject height="19" width="239.3125"><div style="display: inline-block; white-space: nowrap;" xmlns="http://www.w3.org/1999/xhtml"><span class="nodeLabel">Evidence and self-documentation</span></div></foreignObject></g></g><g id="runtime" class="cluster default flowchart-label"><rect height="646" width="1606.52734375" y="370" x="1118.1171875" ry="0" rx="0" style=""/><g transform="translate(1856.427734375, 370)" class="cluster-label"><foreignObject height="19" width="129.90625"><div style="display: inline-block; white-space: nowrap;" xmlns="http://www.w3.org/1999/xhtml"><span class="nodeLabel">Runtime authority</span></div></foreignObject></g></g></g><g class="edgePaths"><path marker-end="url(#my-svg_flowchart-pointEnd)" style="fill:none;" class="edge-thickness-normal edge-pattern-solid flowchart-link LS-engine LE-shell" id="L-engine-shell-0" d="M1848.332,486L1841.979,491.75C1835.626,497.5,1822.92,509,1804.079,520.149C1785.237,531.299,1760.259,542.098,1747.77,547.497L1735.282,552.897"/><path marker-end="url(#my-svg_flowchart-pointEnd)" style="fill:none;" class="edge-thickness-normal edge-pattern-solid flowchart-link LS-shell LE-script" id="L-shell-script-0" d="M1466.381,646L1446.314,651.75C1426.246,657.5,1386.111,669,1366.044,680.5C1345.977,692,1345.977,703.5,1345.977,712.533C1345.977,721.567,1345.977,728.133,1345.977,731.417L1345.977,734.7"/><path marker-end="url(#my-svg_flowchart-pointEnd)" style="fill:none;" class="edge-thickness-normal edge-pattern-solid flowchart-link LS-engine LE-api" id="L-engine-api-0" d="M2069.344,460.623L2154.018,470.603C2238.691,480.582,2408.039,500.541,2492.713,523.854C2577.387,547.167,2577.387,573.833,2577.387,600.5C2577.387,627.167,2577.387,653.833,2577.387,672.917C2577.387,692,2577.387,703.5,2573.477,714.301C2569.568,725.103,2561.749,735.206,2557.839,740.257L2553.93,745.309"/><path marker-end="url(#my-svg_flowchart-pointEnd)" style="fill:none;" class="edge-thickness-normal edge-pattern-solid flowchart-link LS-shell LE-api" id="L-shell-api-0" d="M1794.941,617.233L1901.923,627.777C2008.904,638.322,2222.866,659.411,2329.847,675.705C2436.828,692,2436.828,703.5,2443.159,714.44C2449.49,725.38,2462.151,735.76,2468.482,740.95L2474.813,746.14"/><path marker-end="url(#my-svg_flowchart-pointEnd)" style="fill:none;" class="edge-thickness-normal edge-pattern-solid flowchart-link LS-api LE-customIndex" id="L-api-customIndex-0" d="M2522.824,821.5L2522.824,828.833C2522.824,836.167,2522.824,850.833,2509.258,863.589C2495.692,876.344,2468.559,887.189,2454.993,892.611L2441.427,898.033"/><path marker-end="url(#my-svg_flowchart-pointEnd)" style="fill:none;" class="edge-thickness-normal edge-pattern-solid flowchart-link LS-shell LE-customIndex" id="L-shell-customIndex-0" d="M1794.941,622.528L1869.402,632.19C1943.863,641.852,2092.785,661.176,2167.246,676.588C2241.707,692,2241.707,703.5,2241.707,721C2241.707,738.5,2241.707,762,2241.707,787.083C2241.707,812.167,2241.707,838.833,2246.898,857.296C2252.088,875.758,2262.469,886.016,2267.659,891.146L2272.85,896.275"/><path marker-end="url(#my-svg_flowchart-pointEnd)" style="fill:none;" class="edge-thickness-normal edge-pattern-solid flowchart-link LS-shell LE-help" id="L-shell-help-0" d="M1455.41,633.702L1415.529,641.502C1375.648,649.301,1295.887,664.901,1256.006,678.45C1216.125,692,1216.125,703.5,1189.878,714.817C1163.631,726.133,1111.137,737.267,1084.89,742.834L1058.643,748.4"/><path marker-end="url(#my-svg_flowchart-pointEnd)" style="fill:none;" class="edge-thickness-normal edge-pattern-solid flowchart-link LS-engine LE-evidence" id="L-engine-evidence-0" d="M1934.315,486L1938.828,491.75C1943.342,497.5,1952.368,509,1956.881,528.083C1961.395,547.167,1961.395,573.833,1961.395,600.5C1961.395,627.167,1961.395,653.833,1961.395,672.917C1961.395,692,1961.395,703.5,1961.395,721C1961.395,738.5,1961.395,762,1961.395,787.083C1961.395,812.167,1961.395,838.833,1807.399,863.282C1653.404,887.73,1345.413,909.96,1191.418,921.075L1037.423,932.19"/><path marker-end="url(#my-svg_flowchart-pointEnd)" style="fill:none;" class="edge-thickness-normal edge-pattern-solid flowchart-link LS-shell LE-evidence" id="L-shell-evidence-0" d="M1642.64,646L1644.847,651.75C1647.055,657.5,1651.469,669,1653.676,680.5C1655.883,692,1655.883,703.5,1655.883,721C1655.883,738.5,1655.883,762,1655.883,787.083C1655.883,812.167,1655.883,838.833,1552.804,862.438C1449.725,886.042,1243.568,906.584,1140.489,916.855L1037.411,927.126"/><path marker-end="url(#my-svg_flowchart-pointEnd)" style="fill:none;" class="edge-thickness-normal edge-pattern-solid flowchart-link LS-help LE-evidence" id="L-help-evidence-0" d="M883.719,821.5L883.719,828.833C883.719,836.167,883.719,850.833,881.828,863.092C879.938,875.351,876.157,885.201,874.266,890.127L872.376,895.052"/><path marker-end="url(#my-svg_flowchart-pointEnd)" style="fill:none;" class="edge-thickness-normal edge-pattern-solid flowchart-link LS-evidence LE-selfdoc" id="L-evidence-selfdoc-0" d="M853.012,991L853.012,995.167C853.012,999.333,853.012,1007.667,853.012,1017.583C853.012,1027.5,853.012,1039,853.012,1049.617C853.012,1060.233,853.012,1069.967,853.012,1074.833L853.012,1079.7"/><path marker-end="url(#my-svg_flowchart-pointEnd)" style="fill:none;" class="edge-thickness-normal edge-pattern-solid flowchart-link LS-selfdoc LE-mdo" id="L-selfdoc-mdo-0" d="M853.012,1176L853.012,1181.75C853.012,1187.5,853.012,1199,853.012,1209.617C853.012,1220.233,853.012,1229.967,853.012,1234.833L853.012,1239.7"/><path marker-end="url(#my-svg_flowchart-pointEnd)" style="fill:none;" class="edge-thickness-normal edge-pattern-solid flowchart-link LS-mdo LE-publish" id="L-mdo-publish-0" d="M853.012,1336L853.012,1341.75C853.012,1347.5,853.012,1359,825.844,1371.294C798.677,1383.588,744.343,1396.677,717.175,1403.221L690.008,1409.765"/><path marker-end="url(#my-svg_flowchart-pointEnd)" style="fill:none;" class="edge-thickness-normal edge-pattern-solid flowchart-link LS-campus LE-curriculum" id="L-campus-curriculum-0" d="M1018.863,86.762L1123.015,97.385C1227.167,108.008,1435.47,129.254,1539.622,144.744C1643.773,160.233,1643.773,169.967,1643.773,174.833L1643.773,179.7"/><path marker-end="url(#my-svg_flowchart-pointEnd)" style="fill:none;" class="edge-thickness-normal edge-pattern-solid flowchart-link LS-campus LE-lms" id="L-campus-lms-0" d="M699.988,96.538L644.919,105.532C589.849,114.526,479.71,132.513,424.64,146.373C369.57,160.233,369.57,169.967,369.57,174.833L369.57,179.7"/><path marker-end="url(#my-svg_flowchart-pointEnd)" style="fill:none;" class="edge-thickness-normal edge-pattern-solid flowchart-link LS-shell LE-campus" id="L-shell-campus-0" d="M1455.41,571.422L1405.861,562.935C1356.313,554.448,1257.215,537.474,1207.666,515.654C1158.117,493.833,1158.117,467.167,1158.117,442.083C1158.117,417,1158.117,393.5,1158.117,376C1158.117,358.5,1158.117,347,1158.117,335.5C1158.117,324,1158.117,312.5,1158.117,295C1158.117,277.5,1158.117,254,1158.117,228.917C1158.117,203.833,1158.117,177.167,1135.761,157.846C1113.406,138.525,1068.694,126.549,1046.339,120.562L1023.983,114.574"/><path marker-end="url(#my-svg_flowchart-pointEnd)" style="fill:none;" class="edge-thickness-normal edge-pattern-solid flowchart-link LS-evidence LE-campus" id="L-evidence-campus-0" d="M686.779,900L665.772,894.25C644.764,888.5,602.749,877,581.742,857.917C560.734,838.833,560.734,812.167,560.734,787.083C560.734,762,560.734,738.5,560.734,721C560.734,703.5,560.734,692,560.734,672.917C560.734,653.833,560.734,627.167,560.734,600.5C560.734,573.833,560.734,547.167,560.734,520.5C560.734,493.833,560.734,467.167,560.734,442.083C560.734,417,560.734,393.5,560.734,376C560.734,358.5,560.734,347,560.734,335.5C560.734,324,560.734,312.5,560.734,295C560.734,277.5,560.734,254,560.734,228.917C560.734,203.833,560.734,177.167,583.09,157.846C605.446,138.525,650.157,126.549,672.513,120.562L694.869,114.574"/><path marker-end="url(#my-svg_flowchart-pointEnd)" style="fill:none;" class="edge-thickness-normal edge-pattern-solid flowchart-link LS-publish LE-campus" id="L-publish-campus-0" d="M356.949,1412.204L327.192,1405.253C297.435,1398.303,237.921,1384.401,208.163,1364.117C178.406,1343.833,178.406,1317.167,178.406,1290.5C178.406,1263.833,178.406,1237.167,178.406,1210.5C178.406,1183.833,178.406,1157.167,178.406,1130.5C178.406,1103.833,178.406,1077.167,178.406,1058.083C178.406,1039,178.406,1027.5,178.406,1010C178.406,992.5,178.406,969,178.406,943.917C178.406,918.833,178.406,892.167,178.406,865.5C178.406,838.833,178.406,812.167,178.406,787.083C178.406,762,178.406,738.5,178.406,721C178.406,703.5,178.406,692,178.406,672.917C178.406,653.833,178.406,627.167,178.406,600.5C178.406,573.833,178.406,547.167,178.406,520.5C178.406,493.833,178.406,467.167,178.406,442.083C178.406,417,178.406,393.5,178.406,376C178.406,358.5,178.406,347,178.406,335.5C178.406,324,178.406,312.5,178.406,295C178.406,277.5,178.406,254,178.406,228.917C178.406,203.833,178.406,177.167,264.459,153.725C350.512,130.283,522.618,110.065,608.671,99.956L694.724,89.848"/><path marker-end="url(#my-svg_flowchart-pointEnd)" style="fill:none;" class="edge-thickness-normal edge-pattern-solid flowchart-link LS-curriculum LE-shell" id="L-curriculum-shell-0" d="M1554.18,276L1545.976,280.167C1537.771,284.333,1521.362,292.667,1513.158,302.583C1504.953,312.5,1504.953,324,1504.953,335.5C1504.953,347,1504.953,358.5,1504.953,376C1504.953,393.5,1504.953,417,1504.953,442.083C1504.953,467.167,1504.953,493.833,1512.859,512.427C1520.764,531.021,1536.576,541.543,1544.481,546.803L1552.387,552.064"/><path marker-end="url(#my-svg_flowchart-pointEnd)" style="fill:none;" class="edge-thickness-normal edge-pattern-solid flowchart-link LS-curriculum LE-evidence" id="L-curriculum-evidence-0" d="M1462.547,243.611L1330.342,253.176C1198.138,262.741,933.729,281.87,801.525,297.185C669.32,312.5,669.32,324,669.32,335.5C669.32,347,669.32,358.5,669.32,376C669.32,393.5,669.32,417,669.32,442.083C669.32,467.167,669.32,493.833,669.32,520.5C669.32,547.167,669.32,573.833,669.32,600.5C669.32,627.167,669.32,653.833,669.32,672.917C669.32,692,669.32,703.5,669.32,721C669.32,738.5,669.32,762,669.32,787.083C669.32,812.167,669.32,838.833,681.713,857.564C694.106,876.295,718.892,887.089,731.285,892.486L743.678,897.884"/><path marker-end="url(#my-svg_flowchart-pointEnd)" style="fill:none;" class="edge-thickness-normal edge-pattern-solid flowchart-link LS-customIndex LE-curriculum" id="L-customIndex-curriculum-0" d="M2210.8,900L2196.664,894.25C2182.527,888.5,2154.254,877,2140.117,857.917C2125.98,838.833,2125.98,812.167,2125.98,787.083C2125.98,762,2125.98,738.5,2125.98,721C2125.98,703.5,2125.98,692,2125.98,672.917C2125.98,653.833,2125.98,627.167,2125.98,600.5C2125.98,573.833,2125.98,547.167,2125.98,520.5C2125.98,493.833,2125.98,467.167,2125.98,442.083C2125.98,417,2125.98,393.5,2125.98,376C2125.98,358.5,2125.98,347,2081.17,335.5C2036.359,324,1946.738,312.5,1890.157,302.86C1833.577,293.221,1810.036,285.442,1798.266,281.552L1786.496,277.663"/><path marker-end="url(#my-svg_flowchart-pointEnd)" style="fill:none;stroke-width:2px;stroke-dasharray:3;" class="edge-thickness-normal edge-pattern-dotted flowchart-link LS-campus LE-authority" id="L-campus-authority-0" d="M1018.863,82.734L1166.059,94.028C1313.254,105.322,1607.645,127.911,1788.436,146.355C1969.228,164.799,2036.42,179.098,2070.016,186.247L2103.613,193.397"/><path marker-end="url(#my-svg_flowchart-pointEnd)" style="fill:none;stroke-width:2px;stroke-dasharray:3;" class="edge-thickness-normal edge-pattern-dotted flowchart-link LS-authority LE-engine" id="L-authority-engine-0" d="M2277.965,266.5L2277.965,272.25C2277.965,278,2277.965,289.5,2214.738,301C2151.51,312.5,2025.056,324,1961.829,335.5C1898.602,347,1898.602,358.5,1898.602,367.533C1898.602,376.567,1898.602,383.133,1898.602,386.417L1898.602,389.7"/></g><g class="edgeLabels"><g transform="translate(1810.21484375, 520.5)" class="edgeLabel"><g transform="translate(-105.5859375, -9.5)" class="label"><foreignObject height="19" width="211.171875"><div style="display: inline-block; white-space: nowrap;" xmlns="http://www.w3.org/1999/xhtml"><span class="edgeLabel">provides database services to</span></div></foreignObject></g></g><g transform="translate(1345.9765625, 680.5)" class="edgeLabel"><g transform="translate(-31.84375, -9.5)" class="label"><foreignObject height="19" width="63.6875"><div style="display: inline-block; white-space: nowrap;" xmlns="http://www.w3.org/1999/xhtml"><span class="edgeLabel">executes</span></div></foreignObject></g></g><g transform="translate(2577.38671875, 600.5)" class="edgeLabel"><g transform="translate(-89.125, -9.5)" class="label"><foreignObject height="19" width="178.25"><div style="display: inline-block; white-space: nowrap;" xmlns="http://www.w3.org/1999/xhtml"><span class="edgeLabel">is being exposed through</span></div></foreignObject></g></g><g transform="translate(2436.828125, 680.5)" class="edgeLabel"><g transform="translate(-89.125, -9.5)" class="label"><foreignObject height="19" width="178.25"><div style="display: inline-block; white-space: nowrap;" xmlns="http://www.w3.org/1999/xhtml"><span class="edgeLabel">is being exposed through</span></div></foreignObject></g></g><g transform="translate(2522.82421875, 865.5)" class="edgeLabel"><g transform="translate(-122.3828125, -9.5)" class="label"><foreignObject height="19" width="244.765625"><div style="display: inline-block; white-space: nowrap;" xmlns="http://www.w3.org/1999/xhtml"><span class="edgeLabel">future backend/adapter boundary</span></div></foreignObject></g></g><g transform="translate(2241.70703125, 785.5)" class="edgeLabel"><g transform="translate(-95.7265625, -9.5)" class="label"><foreignObject height="19" width="191.453125"><div style="display: inline-block; white-space: nowrap;" xmlns="http://www.w3.org/1999/xhtml"><span class="edgeLabel">SIX, SCX, REINDEX CUSTOM</span></div></foreignObject></g></g><g transform="translate(1216.125, 680.5)" class="edgeLabel"><g transform="translate(-78.0078125, -9.5)" class="label"><foreignObject height="19" width="156.015625"><div style="display: inline-block; white-space: nowrap;" xmlns="http://www.w3.org/1999/xhtml"><span class="edgeLabel">exposes and validates</span></div></foreignObject></g></g><g transform="translate(1961.39453125, 680.5)" class="edgeLabel"><g transform="translate(-102.90625, -9.5)" class="label"><foreignObject height="19" width="205.8125"><div style="display: inline-block; white-space: nowrap;" xmlns="http://www.w3.org/1999/xhtml"><span class="edgeLabel">source and runtime behavior</span></div></foreignObject></g></g><g transform="translate(1655.8828125, 785.5)" class="edgeLabel"><g transform="translate(-117.1328125, -9.5)" class="label"><foreignObject height="19" width="234.265625"><div style="display: inline-block; white-space: nowrap;" xmlns="http://www.w3.org/1999/xhtml"><span class="edgeLabel">commands, scripts, and canaries</span></div></foreignObject></g></g><g transform="translate(883.71875, 865.5)" class="edgeLabel"><g transform="translate(-129.9609375, -9.5)" class="label"><foreignObject height="19" width="259.921875"><div style="display: inline-block; white-space: nowrap;" xmlns="http://www.w3.org/1999/xhtml"><span class="edgeLabel">explanation and validation evidence</span></div></foreignObject></g></g><g transform="translate(853.01171875, 1050.5)" class="edgeLabel"><g transform="translate(-97.40625, -9.5)" class="label"><foreignObject height="19" width="194.8125"><div style="display: inline-block; white-space: nowrap;" xmlns="http://www.w3.org/1999/xhtml"><span class="edgeLabel">candidate facts with status</span></div></foreignObject></g></g><g transform="translate(853.01171875, 1210.5)" class="edgeLabel"><g transform="translate(-109.7265625, -9.5)" class="label"><foreignObject height="19" width="219.453125"><div style="display: inline-block; white-space: nowrap;" xmlns="http://www.w3.org/1999/xhtml"><span class="edgeLabel">provenance-preserving reports</span></div></foreignObject></g></g><g transform="translate(853.01171875, 1370.5)" class="edgeLabel"><g transform="translate(-99.0234375, -9.5)" class="label"><foreignObject height="19" width="198.046875"><div style="display: inline-block; white-space: nowrap;" xmlns="http://www.w3.org/1999/xhtml"><span class="edgeLabel">human-reviewed promotion</span></div></foreignObject></g></g><g transform="translate(1643.7734375, 150.5)" class="edgeLabel"><g transform="translate(-69.8359375, -9.5)" class="label"><foreignObject height="19" width="139.671875"><div style="display: inline-block; white-space: nowrap;" xmlns="http://www.w3.org/1999/xhtml"><span class="edgeLabel">organizes and hosts</span></div></foreignObject></g></g><g transform="translate(369.5703125, 150.5)" class="edgeLabel"><g transform="translate(-41.7421875, -9.5)" class="label"><foreignObject height="19" width="83.484375"><div style="display: inline-block; white-space: nowrap;" xmlns="http://www.w3.org/1999/xhtml"><span class="edgeLabel">coordinates</span></div></foreignObject></g></g><g transform="translate(1158.1171875, 335.5)" class="edgeLabel"><g transform="translate(-93.8984375, -9.5)" class="label"><foreignObject height="19" width="187.796875"><div style="display: inline-block; white-space: nowrap;" xmlns="http://www.w3.org/1999/xhtml"><span class="edgeLabel">runtime consumed by labs</span></div></foreignObject></g></g><g transform="translate(560.734375, 520.5)" class="edgeLabel"><g transform="translate(-88.5859375, -9.5)" class="label"><foreignObject height="19" width="177.171875"><div style="display: inline-block; white-space: nowrap;" xmlns="http://www.w3.org/1999/xhtml"><span class="edgeLabel">proof state consumed by</span></div></foreignObject></g></g><g transform="translate(178.40625, 785.5)" class="edgeLabel"><g transform="translate(-137.859375, -9.5)" class="label"><foreignObject height="19" width="275.71875"><div style="display: inline-block; white-space: nowrap;" xmlns="http://www.w3.org/1999/xhtml"><span class="edgeLabel">reviewed teaching/reference material</span></div></foreignObject></g></g><g transform="translate(1504.953125, 440.5)" class="edgeLabel"><g transform="translate(-96.6171875, -9.5)" class="label"><foreignObject height="19" width="193.234375"><div style="display: inline-block; white-space: nowrap;" xmlns="http://www.w3.org/1999/xhtml"><span class="edgeLabel">runs commands and scripts</span></div></foreignObject></g></g><g transform="translate(669.3203125, 600.5)" class="edgeLabel"><g transform="translate(-85.125, -9.5)" class="label"><foreignObject height="19" width="170.25"><div style="display: inline-block; white-space: nowrap;" xmlns="http://www.w3.org/1999/xhtml"><span class="edgeLabel">requires attached proof</span></div></foreignObject></g></g><g transform="translate(2125.98046875, 600.5)" class="edgeLabel"><g transform="translate(-103.4296875, -9.5)" class="label"><foreignObject height="19" width="206.859375"><div style="display: inline-block; white-space: nowrap;" xmlns="http://www.w3.org/1999/xhtml"><span class="edgeLabel">algorithm and extension labs</span></div></foreignObject></g></g><g class="edgeLabel"><g transform="translate(0, 0)" class="label"><foreignObject height="0" width="0"><div style="display: inline-block; white-space: nowrap;" xmlns="http://www.w3.org/1999/xhtml"><span class="edgeLabel"></span></div></foreignObject></g></g><g class="edgeLabel"><g transform="translate(0, 0)" class="label"><foreignObject height="0" width="0"><div style="display: inline-block; white-space: nowrap;" xmlns="http://www.w3.org/1999/xhtml"><span class="edgeLabel"></span></div></foreignObject></g></g></g><g class="nodes"><g transform="translate(859.42578125, 70.5)" data-id="campus" data-node="true" id="flowchart-campus-36" class="node default alpha flowchart-label"><rect height="91" width="318.875" y="-45.5" x="-159.4375" ry="0" rx="0" style="" class="basic label-container"/><g transform="translate(-151.9375, -38)" style="" class="label"><rect/><foreignObject height="76" width="303.875"><div style="display: inline-block; white-space: nowrap;" xmlns="http://www.w3.org/1999/xhtml"><span class="nodeLabel">Laboratory Campus / LabTalk<br />ACTIVE ALPHA<br />portal, registries, datasets, cases, labs,<br />proof overlays, collaboration and planning</span></div></foreignObject></g></g><g transform="translate(1643.7734375, 230.5)" data-id="curriculum" data-node="true" id="flowchart-curriculum-37" class="node default alpha flowchart-label"><rect height="91" width="362.453125" y="-45.5" x="-181.2265625" ry="0" rx="0" style="" class="basic label-container"/><g transform="translate(-173.7265625, -38)" style="" class="label"><rect/><foreignObject height="76" width="347.453125"><div style="display: inline-block; white-space: nowrap;" xmlns="http://www.w3.org/1999/xhtml"><span class="nodeLabel">Curriculum and lesson paths<br />DRAFT / EVOLVING<br />database literacy, SelfDoc systems, history,<br />mutation safety, scripting, indexes and relations</span></div></foreignObject></g></g><g transform="translate(369.5703125, 230.5)" data-id="lms" data-node="true" id="flowchart-lms-38" class="node default partial flowchart-label"><rect height="91" width="312.328125" y="-45.5" x="-156.1640625" ry="0" rx="0" style="" class="basic label-container"/><g transform="translate(-148.6640625, -38)" style="" class="label"><rect/><foreignObject height="76" width="297.328125"><div style="display: inline-block; white-space: nowrap;" xmlns="http://www.w3.org/1999/xhtml"><span class="nodeLabel">Delivery and extension lanes<br />RESERVED / EXPERIMENTAL<br />local portal, provider-neutral LMS queue,<br />GUI and external-tool experiments</span></div></foreignObject></g></g><g transform="translate(883.71875, 785.5)" data-id="help" data-node="true" id="flowchart-help-17" class="node default active flowchart-label"><rect height="72" width="358.796875" y="-36" x="-179.3984375" ry="0" rx="0" style="" class="basic label-container"/><g transform="translate(-171.8984375, -28.5)" style="" class="label"><rect/><foreignObject height="57" width="343.796875"><div style="display: inline-block; white-space: nowrap;" xmlns="http://www.w3.org/1999/xhtml"><span class="nodeLabel">HELP, metadata, contracts, CMDHELPCHK<br />ACTIVE / PARTIAL<br />explanation, identity, organization, drift checks</span></div></foreignObject></g></g><g transform="translate(853.01171875, 945.5)" data-id="evidence" data-node="true" id="flowchart-evidence-18" class="node default active flowchart-label"><rect height="91" width="358.25" y="-45.5" x="-179.125" ry="0" rx="0" style="" class="basic label-container"/><g transform="translate(-171.625, -38)" style="" class="label"><rect/><foreignObject height="76" width="343.25"><div style="display: inline-block; white-space: nowrap;" xmlns="http://www.w3.org/1999/xhtml"><span class="nodeLabel">Evidence and proof artifacts<br />ACTIVE<br />source contracts, runtime canaries, transcripts,<br />HELP readback, tests, screenshots, hashes</span></div></foreignObject></g></g><g transform="translate(853.01171875, 1130.5)" data-id="selfdoc" data-node="true" id="flowchart-selfdoc-19" class="node default governed flowchart-label"><rect height="91" width="260.328125" y="-45.5" x="-130.1640625" ry="0" rx="0" style="" class="basic label-container"/><g transform="translate(-122.6640625, -38)" style="" class="label"><rect/><foreignObject height="76" width="245.328125"><div style="display: inline-block; white-space: nowrap;" xmlns="http://www.w3.org/1999/xhtml"><span class="nodeLabel">SelfDoc<br />ACTIVE, REPORT-ONLY BY DEFAULT<br />collects, classifies, crosswalks,<br />and preserves provenance</span></div></foreignObject></g></g><g transform="translate(853.01171875, 1290.5)" data-id="mdo" data-node="true" id="flowchart-mdo-20" class="node default governed flowchart-label"><rect height="91" width="285.96875" y="-45.5" x="-142.984375" ry="0" rx="0" style="" class="basic label-container"/><g transform="translate(-135.484375, -38)" style="" class="label"><rect/><foreignObject height="76" width="270.96875"><div style="display: inline-block; white-space: nowrap;" xmlns="http://www.w3.org/1999/xhtml"><span class="nodeLabel">MDO and manualgen<br />GOVERNED / EVOLVING<br />review packets, decisions, validation,<br />draft assembly, promotion records</span></div></foreignObject></g></g><g transform="translate(520.90234375, 1450.5)" data-id="publish" data-node="true" id="flowchart-publish-21" class="node default output flowchart-label"><rect height="91" width="327.90625" y="-45.5" x="-163.953125" ry="0" rx="0" style="" class="basic label-container"/><g transform="translate(-156.453125, -38)" style="" class="label"><rect/><foreignObject height="76" width="312.90625"><div style="display: inline-block; white-space: nowrap;" xmlns="http://www.w3.org/1999/xhtml"><span class="nodeLabel">Reviewed derivatives<br />VERSIONED OUTPUTS<br />manuals, diagrams, catalogs, x64base.com,<br />and DotTalk++ artifact-room material</span></div></foreignObject></g></g><g transform="translate(1898.6015625, 440.5)" data-id="engine" data-node="true" id="flowchart-engine-0" class="node default active flowchart-label"><rect height="91" width="341.484375" y="-45.5" x="-170.7421875" ry="0" rx="0" style="" class="basic label-container"/><g transform="translate(-163.2421875, -38)" style="" class="label"><rect/><foreignObject height="76" width="326.484375"><div style="display: inline-block; white-space: nowrap;" xmlns="http://www.w3.org/1999/xhtml"><span class="nodeLabel">x64base engine services<br />ACTIVE<br />DbArea/workspaces, classic/VFP/x64 DBF,<br />memos, indexes, relations, buffering, locking</span></div></foreignObject></g></g><g transform="translate(1625.17578125, 600.5)" data-id="shell" data-node="true" id="flowchart-shell-1" class="node default active flowchart-label"><rect height="91" width="339.53125" y="-45.5" x="-169.765625" ry="0" rx="0" style="" class="basic label-container"/><g transform="translate(-162.265625, -38)" style="" class="label"><rect/><foreignObject height="76" width="324.53125"><div style="display: inline-block; white-space: nowrap;" xmlns="http://www.w3.org/1999/xhtml"><span class="nodeLabel">DotTalk++ command and runtime identity<br />ACTIVE<br />command shell, expression/function surface,<br />HELP routing, validation, automation host</span></div></foreignObject></g></g><g transform="translate(1345.9765625, 785.5)" data-id="script" data-node="true" id="flowchart-script-2" class="node default partial flowchart-label"><rect height="91" width="315.546875" y="-45.5" x="-157.7734375" ry="0" rx="0" style="" class="basic label-container"/><g transform="translate(-150.2734375, -38)" style="" class="label"><rect/><foreignObject height="76" width="300.546875"><div style="display: inline-block; white-space: nowrap;" xmlns="http://www.w3.org/1999/xhtml"><span class="nodeLabel">DotScript<br />ACTIVE / EVOLVING<br />repeatable .dts command files, variables,<br />IF and loop/scan control structures</span></div></foreignObject></g></g><g transform="translate(2522.82421875, 785.5)" data-id="api" data-node="true" id="flowchart-api-3" class="node default partial flowchart-label"><rect height="72" width="300.78125" y="-36" x="-150.390625" ry="0" rx="0" style="" class="basic label-container"/><g transform="translate(-142.890625, -28.5)" style="" class="label"><rect/><foreignObject height="57" width="285.78125"><div style="display: inline-block; white-space: nowrap;" xmlns="http://www.w3.org/1999/xhtml"><span class="nodeLabel">Open API lanes<br />IN DEVELOPMENT<br />index lifecycle and GUI-neutral services</span></div></foreignObject></g></g><g transform="translate(2322.6640625, 945.5)" data-id="customIndex" data-node="true" id="flowchart-customIndex-4" class="node default partial flowchart-label"><rect height="91" width="455.328125" y="-45.5" x="-227.6640625" ry="0" rx="0" style="" class="basic label-container"/><g transform="translate(-220.1640625, -38)" style="" class="label"><rect/><foreignObject height="76" width="440.328125"><div style="display: inline-block; white-space: nowrap;" xmlns="http://www.w3.org/1999/xhtml"><span class="nodeLabel">Student and custom index extension lane<br />ACTIVE STUBS + PLANNED ATTACHMENT CONTRACT<br />SIX single-tag and SCX compound labs;<br />SNX reserved/container groundwork; REINDEX CUSTOM opt-in</span></div></foreignObject></g></g><g transform="translate(2277.96484375, 230.5)" data-id="authority" data-node="true" id="flowchart-authority-55" class="node default output flowchart-label"><rect height="72" width="467.421875" y="-36" x="-233.7109375" ry="0" rx="0" style="" class="basic label-container"/><g transform="translate(-226.2109375, -28.5)" style="" class="label"><rect/><foreignObject height="57" width="452.421875"><div style="display: inline-block; white-space: nowrap;" xmlns="http://www.w3.org/1999/xhtml"><span class="nodeLabel">Boundary rule<br />Laboratory Campus may launch, sequence, explain, and teach.<br />It does not redefine x64base or DotTalk++ runtime behavior.</span></div></foreignObject></g></g></g></g></g></svg>