<svg xmlns="http://www.w3.org/2000/svg" width="960" height="540" viewBox="0 0 960 540">
  <rect width="960" height="540" fill="#fbfbf8"/>
  <text x="48" y="54" font-family="Segoe UI, Arial, sans-serif" font-size="30" font-weight="700" fill="#1f2937">Evidence to Manual Pipeline</text>
  <text x="48" y="86" font-family="Segoe UI, Arial, sans-serif" font-size="15" fill="#4b5563">Manual prose is promoted from anchored evidence, not memory.</text>
  <defs>
    <marker id="arrow" markerWidth="12" markerHeight="12" refX="10" refY="6" orient="auto">
      <path d="M2,2 L10,6 L2,10 Z" fill="#374151"/>
    </marker>
  </defs>
  <g font-family="Segoe UI, Arial, sans-serif" font-size="16" text-anchor="middle">
    <g fill="#e0f2fe" stroke="#0284c7"><rect x="54" y="142" width="142" height="68" rx="8"/><text x="125" y="181">Source</text></g>
    <g fill="#ecfdf5" stroke="#059669"><rect x="226" y="142" width="142" height="68" rx="8"/><text x="297" y="181">HELP DBFs</text></g>
    <g fill="#fef9c3" stroke="#ca8a04"><rect x="398" y="142" width="142" height="68" rx="8"/><text x="469" y="181">META</text></g>
    <g fill="#ede9fe" stroke="#7c3aed"><rect x="570" y="142" width="142" height="68" rx="8"/><text x="641" y="181">SelfDoc</text></g>
    <g fill="#fee2e2" stroke="#dc2626"><rect x="742" y="142" width="142" height="68" rx="8"/><text x="813" y="181">cmdhelpchk</text></g>
    <g fill="#e5e7eb" stroke="#374151"><rect x="156" y="316" width="160" height="72" rx="8"/><text x="236" y="356">Runtime Proof</text></g>
    <g fill="#dbeafe" stroke="#2563eb"><rect x="400" y="316" width="160" height="72" rx="8"/><text x="480" y="356">Manualgen</text></g>
    <g fill="#dcfce7" stroke="#16a34a"><rect x="644" y="316" width="160" height="72" rx="8"/><text x="724" y="347">Reader Manual</text><text x="724" y="368" font-size="13">and Data Dictionary</text></g>
  </g>
  <g stroke="#374151" stroke-width="2.2" fill="none" marker-end="url(#arrow)">
    <path d="M196 176 H226"/><path d="M368 176 H398"/><path d="M540 176 H570"/><path d="M712 176 H742"/>
    <path d="M813 210 C813 270 236 260 236 316"/>
    <path d="M316 352 H400"/><path d="M560 352 H644"/>
  </g>
</svg>
