<svg xmlns="http://www.w3.org/2000/svg" width="960" height="540" viewBox="0 0 960 540">
  <rect width="960" height="540" fill="#fffdfa"/>
  <text x="48" y="54" font-family="Segoe UI, Arial, sans-serif" font-size="30" font-weight="700" fill="#111827">Manual Family</text>
  <text x="48" y="86" font-family="Segoe UI, Arial, sans-serif" font-size="15" fill="#4b5563">The reader manual is the front door. The full documentation should become a family.</text>
  <g font-family="Segoe UI, Arial, sans-serif" font-size="16">
    <rect x="80" y="130" width="230" height="78" rx="8" fill="#dbeafe" stroke="#2563eb"/><text x="110" y="163" font-weight="700" fill="#1e3a8a">User Guide</text><text x="110" y="187" fill="#1e40af">ordinary workflows</text>
    <rect x="365" y="130" width="230" height="78" rx="8" fill="#dcfce7" stroke="#16a34a"/><text x="395" y="163" font-weight="700" fill="#14532d">Command Reference</text><text x="395" y="187" fill="#166534">commands and functions</text>
    <rect x="650" y="130" width="230" height="78" rx="8" fill="#fef3c7" stroke="#d97706"/><text x="680" y="163" font-weight="700" fill="#78350f">DBA Guide</text><text x="680" y="187" fill="#92400e">locks, buffers, safety</text>
    <rect x="80" y="270" width="230" height="78" rx="8" fill="#ede9fe" stroke="#7c3aed"/><text x="110" y="303" font-weight="700" fill="#581c87">Developer Handoff</text><text x="110" y="327" fill="#6b21a8">source and proof lanes</text>
    <rect x="365" y="270" width="230" height="78" rx="8" fill="#fee2e2" stroke="#dc2626"/><text x="395" y="303" font-weight="700" fill="#7f1d1d">Data Dictionary</text><text x="395" y="327" fill="#991b1b">schemas and fields</text>
    <rect x="650" y="270" width="230" height="78" rx="8" fill="#e5e7eb" stroke="#4b5563"/><text x="680" y="303" font-weight="700" fill="#111827">LabTalk Cases</text><text x="680" y="327" fill="#374151">teaching scenarios</text>
  </g>
</svg>
